# xmcd
#
# Track frame offsets: 
#        150
#        21580
#        47995
#        62812
#        79237
#        97135
#        113127
#        140012
#        165162
#        182517
#        203612
#
# Disc length: 2925 seconds
#
# Revision: 11
# Processed by: cddbd v1.5.2PL0 Copyright (c) Steve Scherf et al.
# Submitted via: ExactAudioCopy v1.2
#
DISCID=970b6b0b
DTITLE=Little Jimmy King - Little Jimmy King And The Memphis Soul Surv
DTITLE=ivors
DYEAR=1991
DGENRE=Blues
TTITLE0=King's Crosstown Shuffle
TTITLE1=Same Lovin'
TTITLE2=Born Again
TTITLE3=Wild Woman
TTITLE4=Every Night
TTITLE5=Another Blues Stringer
TTITLE6=Sex Machine
TTITLE7=Lovin' Someone Else
TTITLE8=Another Man's Cologne
TTITLE9=Doin' My Own Thing
TTITLE10=My Muscadine Wine
EXTD=
EXTT0=
EXTT1=
EXTT2=
EXTT3=
EXTT4=
EXTT5=
EXTT6=
EXTT7=
EXTT8=
EXTT9=
EXTT10=
PLAYORDER=
